<svg width="451" height="389" fill="none" xmlns="http://www.w3.org/2000/svg"><path d="M427 8H18v260h409V8z" fill="url(#paint0_linear)"/><path d="M422.401 31.721H21.774v228.646H422.4V31.721z" fill="#fff"/><path d="M422.401 12.5H21.774v19.221H422.4V12.5z" fill="#41389D"/><path d="M417.802 48.216H27.395v199.462h390.407V48.216z" fill="url(#paint1_linear)"/><path opacity=".5" d="M79.262 51.769H32.249v37.304h47.013V51.769z" fill="#41389D"/><path d="M126.785 51.769H79.773v37.304h47.012V51.769z" fill="#fff"/><path opacity=".2" d="M174.309 51.769h-47.013v37.304h47.013V51.769z" fill="#41389D"/><path d="M221.832 51.769H174.82v37.304h47.012V51.769zM269.355 51.769h-47.012v37.304h47.012V51.769z" fill="#fff"/><path opacity=".5" d="M316.879 51.769h-47.013v37.304h47.013V51.769z" fill="#41389D"/><path d="M364.402 51.769H317.39v37.304h47.012V51.769z" fill="#fff"/><path opacity=".2" d="M411.925 51.769h-47.012v37.304h47.012V51.769zM79.262 89.834H32.249v37.304h47.013V89.834zM126.785 89.834H79.773v37.304h47.012V89.834z" fill="#41389D"/><path d="M174.309 89.834h-47.013v37.304h47.013V89.834z" fill="#fff"/><path opacity=".5" d="M221.832 89.834H174.82v37.304h47.012V89.834z" fill="#41389D"/><path d="M269.355 89.834h-47.012v37.304h47.012V89.834z" fill="#fff"/><path opacity=".2" d="M316.879 89.834h-47.013v37.304h47.013V89.834z" fill="#41389D"/><path opacity=".5" d="M364.402 89.834H317.39v37.304h47.012V89.834z" fill="#41389D"/><path d="M411.925 89.834h-47.012v37.304h47.012V89.834zM79.262 127.392H32.249v37.304h47.013v-37.304zM126.785 127.392H79.773v37.304h47.012v-37.304z" fill="#fff"/><path opacity=".2" d="M174.309 127.392h-47.013v37.304h47.013v-37.304z" fill="#41389D"/><path d="M221.832 127.392H174.82v37.304h47.012v-37.304z" fill="#fff"/><path opacity=".2" d="M269.355 127.392h-47.012v37.304h47.012v-37.304z" fill="#41389D"/><path d="M316.879 127.392h-47.013v37.304h47.013v-37.304zM364.402 127.392H317.39v37.304h47.012v-37.304z" fill="#fff"/><path opacity=".2" d="M411.925 127.392h-47.012v37.304h47.012v-37.304z" fill="#41389D"/><path d="M79.262 164.95H32.249v37.304h47.013V164.95z" fill="#fff"/><path opacity=".5" d="M126.785 164.95H79.773v37.304h47.012V164.95zM174.309 164.95h-47.013v37.304h47.013V164.95z" fill="#41389D"/><path d="M221.832 164.95H174.82v37.304h47.012V164.95zM269.355 164.95h-47.012v37.304h47.012V164.95z" fill="#fff"/><path opacity=".5" d="M316.879 164.95h-47.013v37.304h47.013V164.95z" fill="#41389D"/><path d="M364.402 164.95H317.39v37.304h47.012V164.95z" fill="#fff"/><path opacity=".5" d="M411.925 164.95h-47.012v37.304h47.012V164.95zM79.262 203.015H32.249v37.304h47.013v-37.304z" fill="#41389D"/><path opacity=".2" d="M126.785 203.015H79.773v37.304h47.012v-37.304z" fill="#41389D"/><path d="M174.309 203.015h-47.013v37.304h47.013v-37.304z" fill="#fff"/><path opacity=".5" d="M221.832 203.015H174.82v37.304h47.012v-37.304z" fill="#41389D"/><path opacity=".2" d="M269.355 203.015h-47.012v37.304h47.012v-37.304z" fill="#41389D"/><path d="M316.879 203.015h-47.013v37.304h47.013v-37.304z" fill="#fff"/><path opacity=".2" d="M364.402 203.015H317.39v37.304h47.012v-37.304z" fill="#41389D"/><path d="M411.925 203.015h-47.012v37.304h47.012v-37.304z" fill="#fff"/><path d="M50.39 130.945H36.082v14.211H50.39v-14.211zM192.449 55.83h-14.308v14.21h14.308V55.83zM190.916 130.945h-14.308v14.211h14.308v-14.211zM239.462 166.98h-14.309v14.211h14.309V166.98zM333.997 130.945h-14.308v14.211h14.308v-14.211z" fill="#69F0AE"/><path d="M88.76 186.441a2.286 2.286 0 00.846-3.134 2.318 2.318 0 00-3.156-.839 2.286 2.286 0 00-.845 3.134 2.318 2.318 0 003.155.839z" fill="url(#paint2_linear)"/><path d="M120.745 194.677a2.286 2.286 0 00.846-3.134 2.32 2.32 0 00-3.155-.84 2.286 2.286 0 00-.846 3.134 2.32 2.32 0 003.155.84z" fill="url(#paint3_linear)"/><path d="M32.26 24.955a3.178 3.178 0 003.176-3.181 3.178 3.178 0 00-3.176-3.18 3.178 3.178 0 00-3.175 3.18 3.178 3.178 0 003.175 3.18zM44.314 24.955a3.178 3.178 0 003.175-3.181 3.178 3.178 0 00-3.175-3.18 3.178 3.178 0 00-3.176 3.18 3.178 3.178 0 003.176 3.18zM56.367 24.955a3.178 3.178 0 003.176-3.181 3.178 3.178 0 00-3.175-3.18 3.178 3.178 0 00-3.176 3.18 3.178 3.178 0 003.175 3.18z" fill="#fff"/><path d="M444.321 352.189l2.964 11.875-13.04 3.562-1.186-12.468 11.262-2.969zM396.902 367.032v11.281l-13.041 2.375-2.371-5.937 4.742-10.093 10.67 2.374z" fill="#A0616A"/><path d="M422.982 244.132l-1.778 16.03 1.186 30.874s0 2.969 1.778 4.156c.954.649 21.931 59.372 21.931 59.372s-4.741 5.937-13.633 4.156l-1.778-5.937s-2.371-7.718-3.556-9.5c-1.186-1.781-18.968-37.998-18.968-37.998l-8.299-14.843-2.371 20.187s4.742 25.53 3.557 37.404c-1.186 11.875-3.557 24.343-3.557 24.343l-14.225-2.375a9.933 9.933 0 00-1.779-5.344c-1.778-2.374-1.185-10.687-1.185-10.687v-1.781l-3.557-45.716-6.52-59.966 52.754-2.375z" fill="#2F2E41"/><path d="M382.676 136.075c8.839 0 16.004-7.177 16.004-16.031 0-8.853-7.165-16.03-16.004-16.03-8.839 0-16.004 7.177-16.004 16.03 0 8.854 7.165 16.031 16.004 16.031z" fill="#A0616A"/><path d="M396.606 120.341l6.52 16.03-15.412 11.282-9.484-16.625 18.376-10.687z" fill="#A0616A"/><path d="M397.494 132.512l5.928-2.968 3.556 8.312s23.117 7.124 21.339 39.779c-1.778 32.655-5.927 45.123-5.927 45.123s10.076 21.374 4.149 23.749c-5.928 2.375-56.311 11.281-57.496 2.968-1.186-8.312 4.149-56.997 4.149-56.997s-1.778-35.029 13.04-42.154l-2.963-6.531 14.225-11.281z" fill="#3F3D56"/><path d="M364.894 247.694s-13.633 14.25-5.928 17.812c7.706 3.562 12.448-16.031 12.448-16.031l-6.52-1.781z" fill="#A0616A"/><path d="M392.753 375.344l6.52-2.374s7.113 16.03 1.185 16.03h-15.411s-8.891-2.969-13.633-2.969c-4.742 0-13.633-8.905-7.113-13.061 6.52-4.157 14.818-2.969 14.818-2.969l2.371-5.344 2.964 8.313s3.557 5.937 8.299 2.374zM440.765 362.283s3.712-2.346 5.709-1.47c1.996.876 3.182 10.375 3.182 10.375s5.927 7.125-7.113 8.312c-13.04 1.188-16.004-1.187-17.19-4.749-1.185-3.563 1.186-7.125 1.186-7.125l3.556-1.187s4.15-2.969 2.964-4.156c-1.185-1.188 0-3.563 0-3.563s4.149 8.312 7.706 3.563zM388.15 119.787a7.91 7.91 0 00-.348-1.525c-.86-1.808-4.216-1.28-4.814-3.191-.118-.374-.093-.781-.208-1.155-.292-.956-1.414-1.429-2.411-1.384a12.99 12.99 0 00-2.889.746c-2.345.666-4.84.412-7.263.152a7.29 7.29 0 01-3.101-.809c-.918-.565-1.579-1.704-1.245-2.73.32-.984 1.395-1.524 1.878-2.439.768-1.452-.17-3.328.452-4.849.999-2.438 4.778-1.949 6.699-3.751.466-.438.801-.997 1.248-1.455 1.325-1.357 3.419-1.62 5.305-1.432 1.886.187 3.739.742 5.634.708 1.797-.032 3.681-.58 5.337.12a7.614 7.614 0 012.507 2.063l4.247 4.666a5.236 5.236 0 011.312 1.981c.256.894.021 1.853.13 2.777.248 2.106 2.217 3.697 2.482 5.801a7.53 7.53 0 01-.093 1.954l-.595 4.393c-.03.429-.144.847-.335 1.232-.173.296-.435.529-.63.812-.55.796-.499 1.85-.773 2.779-.273.929-1.253 1.848-2.11 1.401-.559-.293-.929-2.709-1.609-3.336-.946-.874-1.441-.766-2.609-.751-2.339.03-5.45.231-6.198-2.778z" fill="#2F2E41"/><path d="M390.974 154.48s17.783 7.125 12.448 23.155c-5.335 16.031-19.561 65.31-19.561 65.31l-8.298 4.156-2.371 6.531-11.262-4.157 1.778-8.905 4.149-8.906 10.67-66.497s0-11.281 12.447-10.687z" fill="#3F3D56"/><path opacity=".1" d="M404.311 180.9l-18.375 62.935-7.706 7.719 4.446-8.016 21.635-62.638z" fill="#000"/><path d="M42.525 191.079l3.465 24.678 14.628 26.221c4.235 3.856.385 13.11.385 13.11l-3.85-2.699-.77-4.627s-16.938-19.28-21.172-23.907c-4.235-4.627-5.775-30.077-5.775-30.077l13.09-2.699zM29.775 358.435s.77 8.868.385 11.182c-.385 2.313-11.933-.386-11.933-.386 1.924-3.856 3.08-15.424 3.08-15.424l8.468 4.628zM87.135 360.748s1.155 12.339.77 14.653c-.385 2.313-11.934-.386-11.934-.386 1.925-3.856 3.08-15.424 3.08-15.424l8.084 1.157zM63.544 162.936c7.734 0 14.002-6.279 14.002-14.025s-6.269-14.025-14.002-14.025c-7.733 0-14.002 6.279-14.002 14.025s6.269 14.025 14.002 14.025z" fill="#FBBEBE"/><path d="M65.962 162.165c-2.31 3.085-1.155 8.483-1.155 8.483s-23.483 27.378-27.717 27.378c-4.235 0-3.465-19.28-3.465-19.28s6.16-7.326 9.624-8.869c3.465-1.542 9.624-18.123 9.624-18.123s15.399 7.327 13.089 10.411z" fill="#FBBEBE"/><path d="M81.745 214.607l15.07 25.354c2.75 4.532-2.366 27.472-2.366 27.472l-2.31 48.971-3.85 49.345v5.398l-12.703-.386-4.235-52.814-6.159-39.717-10.009 30.462-16.553 37.403a102.555 102.555 0 01-5.198 13.49l-3.08 5.399-11.546-1.352 17.514-59.181 3.465-38.56c.384-21.593 7.314-33.547 7.314-33.547v-4.627l34.646-13.11zM29.006 367.689s1.924-3.085 1.924-1.928 5.005 4.241 5.005 4.241 5.004-.771 5.774 5.013c.77 5.784-6.93 6.941-8.854 6.555-1.925-.385-6.93.386-6.93.386s-3.849.771-10.008 0c-6.16-.771-.77-11.182 0-13.11.77-1.928 4.62-.386 4.62-.386 6.929 1.928 8.469-.771 8.469-.771z" fill="#2F2E41"/><path d="M86.75 373.473s1.925-3.085 1.925-1.928 5.004 4.241 5.004 4.241 5.005-.771 5.775 5.013c.77 5.784-6.93 6.941-8.854 6.555-1.925-.385-6.93.386-6.93.386s-3.85.771-10.009 0c-6.16-.771-.77-11.182 0-13.11.77-1.928 4.62-.386 4.62-.386 6.93 1.928 8.469-.771 8.469-.771z" fill="#2F2E41"/><path d="M60.188 170.263c9.623-10.026 20.017 15.038 20.017 15.038s3.465 9.255.77 14.267c-2.694 5.013 2.695 16.195 2.695 16.195-13.183 11.242-26.32 21.634-38.496 14.267 1.54-9.254-3.465-13.881-6.93-22.75-3.464-8.869-10.008-6.941-10.008-6.941s.384-10.025 1.54-18.123c1.154-8.097 11.548-11.138 11.548-11.138 1.885 3.391 9.24 9.21 18.864-.815z" fill="#3F3D56"/><path d="M77.126 186.458l3.465 24.678 14.628 26.221c4.235 3.856.385 13.11.385 13.11l-3.85-2.699-.77-4.627s-16.938-19.28-21.172-23.907c-4.235-4.627-5.775-30.077-5.775-30.077l13.089-2.699z" fill="#FBBEBE"/><path d="M79.436 190.314l-16.169 1.928s-1.155-18.894 1.287-23.613c2.441-4.719 11.417.477 11.417.477 2.31.386 3.465 21.208 3.465 21.208z" fill="#3F3D56"/><path d="M79.22 140.791c-10.355 5.183-4.38 19.337-5.603 25.276-2.001 9.727-31.52 4.784-31.52 4.784-3.59-.647-5.78-40.669 13.888-40.315 9.914.178 32.104 5.814 23.235 10.255z" fill="#2F2E41"/><path d="M72.908 153.097c.796 0 1.441-1.035 1.441-2.311s-.645-2.31-1.441-2.31c-.797 0-1.442 1.034-1.442 2.31s.645 2.311 1.442 2.311z" fill="#FBBEBE"/><defs><linearGradient id="paint0_linear" x1="222.5" y1="268" x2="222.5" y2="8" gradientUnits="userSpaceOnUse"><stop stop-color="gray" stop-opacity=".25"/><stop offset=".54" stop-color="gray" stop-opacity=".12"/><stop offset="1" stop-color="gray" stop-opacity=".1"/></linearGradient><linearGradient id="paint1_linear" x1="170093" y1="97385.8" x2="170093" y2="18997.1" gradientUnits="userSpaceOnUse"><stop stop-color="gray" stop-opacity=".25"/><stop offset=".54" stop-color="gray" stop-opacity=".12"/><stop offset="1" stop-color="gray" stop-opacity=".1"/></linearGradient><linearGradient id="paint2_linear" x1="-2858.24" y1="2921.86" x2="-2816.48" y2="2921.86" gradientUnits="userSpaceOnUse"><stop stop-color="gray" stop-opacity=".25"/><stop offset=".54" stop-color="gray" stop-opacity=".12"/><stop offset="1" stop-color="gray" stop-opacity=".1"/></linearGradient><linearGradient id="paint3_linear" x1="-2577.35" y1="3028.05" x2="-2535.64" y2="3028.05" gradientUnits="userSpaceOnUse"><stop stop-color="gray" stop-opacity=".25"/><stop offset=".54" stop-color="gray" stop-opacity=".12"/><stop offset="1" stop-color="gray" stop-opacity=".1"/></linearGradient></defs></svg>