<svg width="704" height="489" viewBox="0 0 704 489" fill="none" xmlns="http://www.w3.org/2000/svg">
<path d="M704.548 0.398865H0.972412V451H704.548V0.398865Z" fill="#E6E6E6"/>
<path d="M317.187 60.9072H63.187V321.907H317.187V60.9072Z" fill="white"/>
<path d="M666.187 65.9688H412.187V382.969H666.187V65.9688Z" fill="white"/>
<path d="M662.802 483.762C687.931 483.762 708.302 480.851 708.302 477.262C708.302 473.672 687.931 470.762 662.802 470.762C637.673 470.762 617.302 473.672 617.302 477.262C617.302 480.851 637.673 483.762 662.802 483.762Z" fill="#E6E6E6"/>
<path d="M207.9 483.907C233.029 483.907 253.4 480.997 253.4 477.407C253.4 473.817 233.029 470.907 207.9 470.907C182.771 470.907 162.4 473.817 162.4 477.407C162.4 480.997 182.771 483.907 207.9 483.907Z" fill="#E6E6E6"/>
<path d="M704.248 0H0.671997V29.8905H704.248V0Z" fill="#41389D"/>
<path d="M22.8842 20.8215C25.9439 20.8215 28.4242 18.3412 28.4242 15.2816C28.4242 12.2219 25.9439 9.74161 22.8842 9.74161C19.8246 9.74161 17.3442 12.2219 17.3442 15.2816C17.3442 18.3412 19.8246 20.8215 22.8842 20.8215Z" fill="#E6E6E6"/>
<path d="M43.9125 20.8215C46.9722 20.8215 49.4525 18.3412 49.4525 15.2816C49.4525 12.2219 46.9722 9.74161 43.9125 9.74161C40.8529 9.74161 38.3726 12.2219 38.3726 15.2816C38.3726 18.3412 40.8529 20.8215 43.9125 20.8215Z" fill="#E6E6E6"/>
<path d="M64.9409 20.8215C68.0005 20.8215 70.4809 18.3412 70.4809 15.2816C70.4809 12.2219 68.0005 9.74161 64.9409 9.74161C61.8813 9.74161 59.4009 12.2219 59.4009 15.2816C59.4009 18.3412 61.8813 20.8215 64.9409 20.8215Z" fill="#E6E6E6"/>
<path d="M610.187 150.999H608.648V108.848C608.648 105.644 608.017 102.472 606.791 99.5123C605.565 96.5525 603.768 93.8632 601.503 91.5978C599.238 89.3325 596.548 87.5355 593.589 86.3095C590.629 85.0835 587.456 84.4525 584.253 84.4525H494.951C491.747 84.4525 488.575 85.0835 485.615 86.3095C482.655 87.5355 479.966 89.3325 477.701 91.5978C475.435 93.8632 473.638 96.5525 472.412 99.5123C471.186 102.472 470.555 105.644 470.555 108.848V340.089C470.555 343.293 471.186 346.465 472.412 349.425C473.638 352.385 475.435 355.074 477.701 357.34C479.966 359.605 482.655 361.402 485.615 362.628C488.575 363.854 491.747 364.485 494.951 364.485H584.253C587.456 364.485 590.629 363.854 593.589 362.628C596.548 361.402 599.238 359.605 601.503 357.34C603.768 355.074 605.565 352.385 606.791 349.425C608.017 346.465 608.648 343.293 608.648 340.089V181.002H610.187V150.999Z" fill="#3F3D56"/>
<path d="M584.237 90.7994H572.58C573.116 92.1136 573.321 93.5396 573.176 94.9515C573.031 96.3635 572.541 97.7182 571.75 98.8963C570.958 100.074 569.889 101.04 568.636 101.707C567.383 102.375 565.986 102.724 564.566 102.724H513.407C511.987 102.724 510.59 102.375 509.337 101.707C508.084 101.04 507.015 100.074 506.223 98.8962C505.432 97.7182 504.942 96.3635 504.797 94.9515C504.652 93.5396 504.857 92.1136 505.393 90.7994H494.505C492.113 90.7994 489.744 91.2706 487.534 92.1862C485.323 93.1017 483.315 94.4437 481.623 96.1354C479.931 97.8271 478.589 99.8355 477.674 102.046C476.758 104.256 476.287 106.625 476.287 109.018V339.92C476.287 342.312 476.758 344.681 477.674 346.892C478.589 349.102 479.931 351.11 481.623 352.802C483.315 354.494 485.323 355.836 487.534 356.751C489.744 357.667 492.113 358.138 494.505 358.138H584.237C586.63 358.138 588.999 357.667 591.209 356.751C593.419 355.836 595.428 354.494 597.119 352.802C598.811 351.11 600.153 349.102 601.069 346.892C601.984 344.681 602.456 342.312 602.456 339.92V109.018C602.455 104.186 600.536 99.552 597.119 96.1354C593.703 92.7188 589.069 90.7994 584.237 90.7994V90.7994Z" fill="white"/>
<path d="M278.635 225.776H102.09V233.828H278.635V225.776Z" fill="#E6E6E6"/>
<path d="M278.635 251.776H102.09V259.828H278.635V251.776Z" fill="#41389D"/>
<path d="M278.635 277.776H102.09V285.828H278.635V277.776Z" fill="#E6E6E6"/>
<path d="M591.903 243.346H488.839V251.398H591.903V243.346Z" fill="#E6E6E6"/>
<path d="M591.903 268.346H488.839V276.398H591.903V268.346Z" fill="#E6E6E6"/>
<path d="M591.903 293.346H488.839V301.398H591.903V293.346Z" fill="#E6E6E6"/>
<path d="M602.679 418.391V401.213H585.502V418.391H602.679Z" fill="#3F3D56"/>
<path d="M575.004 418.391V401.213H557.827V418.391H575.004Z" fill="#41389D"/>
<path d="M547.33 418.391V401.213H530.153V418.391H547.33Z" fill="#3F3D56"/>
<path d="M519.655 418.391V401.213H502.478V418.391H519.655Z" fill="#3F3D56"/>
<path d="M491.981 418.391V401.213H474.803V418.391H491.981Z" fill="#3F3D56"/>
<path d="M568 138.99H510.742V196.248H568V138.99Z" fill="#41389D"/>
<path d="M167.605 275.593L166.864 277.075L164.641 265.958C164.641 265.958 161.676 254.1 167.605 254.1C173.534 254.1 172.052 265.958 172.052 265.958V274.111L167.605 275.593Z" fill="#A0616A"/>
<path d="M264.846 274.075L265.588 275.557L267.811 264.44C267.811 264.44 270.776 252.582 264.846 252.582C258.917 252.582 260.4 264.44 260.4 264.44V272.593L264.846 274.075Z" fill="#A0616A"/>
<path d="M200.215 358.94L191.322 413.784L195.768 467.145L206.144 462.699L204.662 422.677L215.038 390.808L217.261 428.606L212.815 467.886L226.155 469.369L235.79 388.585L235.049 361.163L200.215 358.94Z" fill="#2F2E41"/>
<path d="M200.215 460.475L195.027 468.628V486.844C195.027 487.369 195.214 487.876 195.554 488.276C195.894 488.675 196.366 488.941 196.884 489.024C199.426 489.442 203.854 489.738 205.403 487.156C207.627 483.45 206.144 475.298 206.144 475.298C206.144 475.298 209.109 469.369 207.627 464.922C206.144 460.475 204.662 459.734 204.662 459.734L200.215 460.475Z" fill="#2F2E41"/>
<path d="M222.449 467.887L223.932 470.11C223.932 470.11 226.155 472.333 224.673 473.816C223.585 474.968 222.593 476.207 221.708 477.521C221.708 477.521 213.556 479.745 213.556 476.78V467.145L222.449 467.887Z" fill="#2F2E41"/>
<path d="M219.778 298.619C225.204 298.619 229.603 294.221 229.603 288.795C229.603 283.369 225.204 278.971 219.778 278.971C214.352 278.971 209.954 283.369 209.954 288.795C209.954 294.221 214.352 298.619 219.778 298.619Z" fill="#A0616A"/>
<path d="M213.185 291.867L212.444 305.949L225.784 306.69L225.043 292.608L213.185 291.867Z" fill="#A0616A"/>
<path d="M227.637 307.06L225.533 301.921C225.533 301.921 215.779 298.167 212.815 301.872L211.332 306.319L199.474 303.355L192.804 318.177L198.733 360.422C198.733 360.422 214.297 380.433 235.049 361.163L240.978 321.142L236.531 305.578L227.637 307.06Z" fill="#575A89"/>
<path d="M235.049 308.543L236.531 305.578L251.354 296.684L260.4 269.907L267.4 272.907L259.506 304.837L238.013 324.847L235.049 308.543Z" fill="#575A89"/>
<path d="M200.956 304.837L199.474 303.355L183.91 293.72L172.793 271.486L163.9 274.45L173.534 301.872L197.251 321.142L200.956 304.837Z" fill="#575A89"/>
<path d="M227.07 273.75L228.676 272.947L226.267 272.144V271.341C226.267 271.341 214.22 266.522 212.613 274.553C210.54 277.339 209.421 280.719 209.421 284.191C209.421 287.664 210.54 291.043 212.613 293.829V296.238L225.464 297.845L227.07 293.026C227.07 293.026 235.101 278.569 227.07 273.75Z" fill="#2F2E41"/>
<path d="M278.187 90.9072H102.187V191.907H278.187V90.9072Z" fill="#E6E6E6"/>
<path d="M626.202 291.234L627.018 285.974C627.018 285.974 631.771 275.169 628.014 274.586C624.257 274.004 621.123 284.29 621.123 284.29L622.498 295.276L626.202 291.234Z" fill="#FFB8B8"/>
<path d="M664.67 321.051L631.089 314.306L627.187 289.847L617.302 289.084L617.785 320.707L646.962 336.004L664.67 321.051Z" fill="#575A89"/>
<path opacity="0.2" d="M664.67 321.051L631.089 314.306L627.187 289.847L617.302 289.084L617.785 320.707L646.962 336.004L664.67 321.051Z" fill="black"/>
<path d="M573.313 284.764H676.377V276.712H573.313V284.764Z" fill="#41389D"/>
<path d="M619.641 289.43L619.648 284.108C619.648 284.108 622.704 272.706 618.902 272.701C615.1 272.696 613.566 283.34 613.566 283.34L616.594 293.989L619.641 289.43Z" fill="#FFB8B8"/>
<path d="M663.353 304.675L667.961 303.552C669.719 303.554 671.455 303.165 673.045 302.414C674.635 301.662 676.037 300.567 677.151 299.207C678.266 297.847 679.063 296.256 679.487 294.55C679.911 292.843 679.95 291.064 679.602 289.341V289.341C679.605 287.305 679.206 285.288 678.43 283.406C677.653 281.524 676.513 279.814 675.075 278.372C673.637 276.931 671.929 275.786 670.049 275.005C668.169 274.223 666.154 273.82 664.118 273.817V273.817C662.082 273.815 660.065 274.213 658.183 274.99C656.301 275.767 654.59 276.907 653.149 278.344C651.707 279.782 650.563 281.49 649.782 283.37C649 285.25 648.596 287.266 648.594 289.302V289.302C647.998 291.376 647.957 293.57 648.475 295.664C648.994 297.759 650.053 299.681 651.548 301.237C653.042 302.794 654.919 303.931 656.991 304.534C659.063 305.137 661.257 305.186 663.353 304.675Z" fill="#2F2E41"/>
<path d="M636.254 381.458L640.005 422.524L646.797 462.833L658.203 462.847L656.732 423.305L650.709 375.393L636.254 381.458Z" fill="#2F2E41"/>
<path d="M648.321 460.554L640.711 465.106C640.711 465.106 628.543 466.612 630.82 470.417C633.096 474.222 659.713 471.974 659.714 470.453C659.716 468.932 658.966 460.567 657.446 460.565L648.321 460.554Z" fill="#2F2E41"/>
<path d="M669.922 377.91C669.922 377.91 669.708 383.781 664.374 392.899L665.099 421.035L692.429 456.047L682.534 464.399L649.124 426.337L640.817 380.703L651.476 370.071L669.922 377.91Z" fill="#2F2E41"/>
<path d="M690.148 456.044C690.148 456.044 699.271 457.576 697.745 461.376C696.22 465.176 692.396 482.66 682.514 480.367C682.514 480.367 677.951 480.361 679.476 477.321C680.392 475.493 681.41 473.717 682.524 472.003L682.537 462.117L690.148 456.044Z" fill="#2F2E41"/>
<path d="M658.415 305.447C664.714 305.447 669.821 300.341 669.821 294.041C669.821 287.742 664.714 282.636 658.415 282.636C652.116 282.636 647.009 287.742 647.009 294.041C647.009 300.341 652.116 305.447 658.415 305.447Z" fill="#FFB8B8"/>
<path d="M663.728 301.652L663.712 314.578L651.546 314.563L653.083 301.639L663.728 301.652Z" fill="#FFB8B8"/>
<path d="M648.51 309.997L652.197 309.091L663.718 310.016C663.718 310.016 669.793 316.107 669.031 317.627C668.269 319.147 664.42 356.401 664.42 356.401L671.23 383.023L646.896 384.513L634.732 382.977L637.073 335.076C637.073 335.076 631.766 322.142 638.615 318.349C642.483 316.32 645.86 313.469 648.51 309.997V309.997Z" fill="#575A89"/>
<path d="M662.193 313.056L627.978 311.492L620.404 287.911L610.518 288.658L615.801 319.841L646.964 330.526L662.193 313.056Z" fill="#575A89"/>
<path d="M680.432 285.638C684.497 285.638 687.791 282.344 687.791 278.279C687.791 274.215 684.497 270.921 680.432 270.921C676.368 270.921 673.074 274.215 673.074 278.279C673.074 282.344 676.368 285.638 680.432 285.638Z" fill="#2F2E41"/>
<path d="M673.643 274.323C673.643 273.235 673.886 272.16 674.352 271.177C674.819 270.193 675.498 269.325 676.34 268.636C677.183 267.947 678.168 267.453 679.224 267.191C680.281 266.928 681.382 266.904 682.45 267.119C681.508 266.674 680.483 266.434 679.442 266.415C678.4 266.396 677.367 266.598 676.41 267.008C675.453 267.418 674.593 268.027 673.889 268.794C673.185 269.561 672.651 270.469 672.324 271.458C671.997 272.447 671.883 273.493 671.991 274.529C672.099 275.565 672.425 276.566 672.949 277.466C673.472 278.367 674.181 279.145 675.028 279.751C675.875 280.357 676.841 280.776 677.862 280.981C676.599 280.386 675.532 279.444 674.785 278.265C674.038 277.086 673.641 275.719 673.643 274.323V274.323Z" fill="#2F2E41"/>
<path d="M667.33 278.497L657.409 276.67L649.779 281.452C647.903 282.628 646.404 284.317 645.459 286.318C644.514 288.32 644.163 290.551 644.448 292.747L652.089 290.81L653.8 286.519L655.838 289.86L664.105 304.314L672.475 299.762L677.808 291.404L667.33 278.497Z" fill="#2F2E41"/>
<path d="M102.685 90.0401L101.689 91.7744L277.689 192.774L278.685 191.04L102.685 90.0401Z" fill="white"/>
<path d="M277.693 90.0468L101.686 191.033L102.681 192.768L278.688 91.7812L277.693 90.0468Z" fill="white"/>
<path d="M511.894 140.2L510.48 141.614L567.48 198.614L568.894 197.2L511.894 140.2Z" fill="white"/>
<path d="M567.48 138.2L510.48 195.2L511.894 196.614L568.894 139.614L567.48 138.2Z" fill="white"/>
</svg>
